<svg xmlns="http://www.w3.org/2000/svg" viewBox="0 0 24 24" fill="currentColor" aria-hidden="true">
  <path fill-rule="evenodd" clip-rule="evenodd" d="M4 2h16a2 2 0 0 1 2 2v16a2 2 0 0 1-2 2H4a2 2 0 0 1-2-2V4a2 2 0 0 1 2-2Zm3 3.6a1.9 1.9 0 1 0 0 3.8 1.9 1.9 0 0 0 0-3.8Zm5 0a1.9 1.9 0 1 0 0 3.8 1.9 1.9 0 0 0 0-3.8Zm5 0a1.9 1.9 0 1 0 0 3.8 1.9 1.9 0 0 0 0-3.8ZM7 10.1a1.9 1.9 0 1 0 0 3.8 1.9 1.9 0 0 0 0-3.8Zm5 0a1.9 1.9 0 1 0 0 3.8 1.9 1.9 0 0 0 0-3.8Zm5 0a1.9 1.9 0 1 0 0 3.8 1.9 1.9 0 0 0 0-3.8ZM7 14.6a1.9 1.9 0 1 0 0 3.8 1.9 1.9 0 0 0 0-3.8Zm5 0a1.9 1.9 0 1 0 0 3.8 1.9 1.9 0 0 0 0-3.8Zm5 0a1.9 1.9 0 1 0 0 3.8 1.9 1.9 0 0 0 0-3.8Z" />
</svg>
