<svg xmlns="http://www.w3.org/2000/svg" viewBox="0 0 24 24">
  <rect x="2" y="6" width="20" height="12" rx="2.5" fill="none" stroke="#000" stroke-width="1.6"/>
  <g fill="#000">
    <rect x="5" y="9" width="2" height="2" rx="0.4"/>
    <rect x="8.5" y="9" width="2" height="2" rx="0.4"/>
    <rect x="12" y="9" width="2" height="2" rx="0.4"/>
    <rect x="15.5" y="9" width="2" height="2" rx="0.4"/>
    <rect x="19" y="9" width="2" height="2" rx="0.4"/>
    <rect x="5" y="12.5" width="2" height="2" rx="0.4"/>
    <rect x="8.5" y="12.5" width="2" height="2" rx="0.4"/>
    <rect x="12" y="12.5" width="2" height="2" rx="0.4"/>
    <rect x="15.5" y="12.5" width="2" height="2" rx="0.4"/>
    <rect x="19" y="12.5" width="2" height="2" rx="0.4"/>
    <rect x="7" y="15.2" width="10" height="1.6" rx="0.8"/>
  </g>
</svg>
